If any one is interested, this is a 720p version. This has already been uploaded here as a 540p version(http://thepiratebay.se/torrent/8148307/PBS_American_Experience_2013_Silicon_Valley_540p_x264_AAC_mp4). 																							Enjoy and please share.																																																										TTLTTLTTLTTLTTLTTLTTLTTLTTLTTLTTLTTLTTLTTLTTLTTLTTLTTLTTL																																					American_Experience_Silicon_Valley_720p.HDTV.x264_2013_02_05_TTL.mkv
Format                           : Matroska
File size                        : 1.65 GiB
Duration                         : 1h 23mn
Overall bit rate                 : 2 834 Kbps
Writing application              : HandBrake 0.9.5
Writing library                  : libmkv 0.6.4.1

Video
ID                               : 1
Format                           : AVC
Format/Info                      : Advanced Video Codec
Format profile                   : Main@L3.1
Format settings, CABAC           : Yes
Format settings, ReFrames        : 4 frames
Muxing mode                      : Container profile=Unknown@3.1
Codec ID                         : V_MPEG4/ISO/AVC
Duration                         : 1h 23mn
Bit rate                         : 2 649 Kbps
Nominal bit rate                 : 2 700 Kbps
Width                            : 1 280 pixels
Height                           : 720 pixels
Display aspect ratio             : 16:9
Frame rate mode                  : Variable
Frame rate                       : 27.201 fps
Resolution                       : 8 bits
Colorimetry                      : 4:2:0
Scan type                        : Progressive
Bits/(Pixel*Frame)               : 0.106
Stream size                      : 1.55 GiB (94%)
Writing library                  : x264 core 112

Audio                            : English
ID                               : 2
Format                           : AC-3
Format/Info                      : Audio Coding 3
Codec ID                         : A_AC3
Duration                         : 1h 23mn
Bit rate mode                    : Constant
Bit rate                         : 128 Kbps
Channel(s)                       : 2 channels
Channel positions                : L R
Sampling rate                    : 48.0 KHz
Stream size                      : 76.1 MiB (5%)

				